# xmcd
#
# Track frame offsets: 
#        150
#        10589
#        21082
#        32535
#        42464
#        51830
#        61959
#        71931
#        81361
#        90728
#        100785
#        112145
#        121600
#        132451
#        142711
#        151934
#        161940
#        171971
#        182583
#        196755
#        205931
#        218545
#        228011
#        238411
#
# Disc length: 3345 seconds
#
# Revision: 0
# Processed by: cddbd v1.5.2PL0 Copyright (c) Steve Scherf et al.
# Submitted via: ExactAudioCopyFreeDBPlugin 1.0
#
DISCID=450d0f18
DTITLE=Mel Tillis - Walk On, Boy: The Early Years
DYEAR=2012
DGENRE=Country
TTITLE0=Honky Tonk Song
TTITLE1=It Takes A Worried Man To Sing A Worried Blues
TTITLE2=Case Of The Blues
TTITLE3=It's My Life
TTITLE4=Juke Box Man
TTITLE5=If You'll Be My Love
TTITLE6=Take My Hand
TTITLE7=This Heart
TTITLE8=Teen Age Wedding
TTITLE9=Lonely Street
TTITLE10=The Violet And A Rose
TTITLE11=No Song To Sing
TTITLE12=The Brooklyn Bridge
TTITLE13=Finally
TTITLE14=Sawmill
TTITLE15=You Are The Reason
TTITLE16=Georgia Town Blues
TTITLE17=Till I Get Enough Of These Blues
TTITLE18=Loco Weed
TTITLE19=It's So Easy
TTITLE20=Walk On, Boy
TTITLE21=Say
TTITLE22=Hearts Of Stone
TTITLE23=That's Where The Hurt Comes In
EXTD=
EXTT0=
EXTT1=
EXTT2=
EXTT3=
EXTT4=
EXTT5=
EXTT6=
EXTT7=
EXTT8=
EXTT9=
EXTT10=
EXTT11=
EXTT12=
EXTT13=
EXTT14=
EXTT15=
EXTT16=
EXTT17=
EXTT18=
EXTT19=
EXTT20=
EXTT21=
EXTT22=
EXTT23=
PLAYORDER=
